<?xml version="1.0" encoding="UTF-8"?>
<svg xmlns="http://www.w3.org/2000/svg" xmlns:xlink="http://www.w3.org/1999/xlink" width="75pt" height="74.999997pt" viewBox="0 0 75 74.999997" version="1.2">
<g id="surface1">
<path style=" stroke:none;fill-rule:nonzero;fill:rgb(54.899597%,32.159424%,100%);fill-opacity:1;" d="M 28.433594 15.113281 L 15 28.542969 L 23.425781 36.972656 L 26.59375 33.800781 L 21.332031 28.542969 L 28.433594 21.445312 L 33.691406 26.703125 L 36.859375 23.539062 Z M 51.746094 15.113281 C 51.175781 15.113281 50.601562 15.332031 50.164062 15.769531 L 46.34375 19.589844 L 55.296875 28.542969 L 59.121094 24.722656 C 59.996094 23.847656 59.996094 22.429688 59.121094 21.558594 L 53.332031 15.769531 C 52.894531 15.332031 52.320312 15.113281 51.746094 15.113281 Z M 42.984375 22.949219 L 17.238281 48.695312 L 17.238281 57.648438 L 26.195312 57.648438 L 51.941406 31.902344 Z M 51.351562 38.027344 L 48.183594 41.195312 L 53.445312 46.457031 L 46.34375 53.554688 L 41.085938 48.296875 L 37.917969 51.460938 L 46.34375 59.886719 L 59.777344 46.457031 Z M 51.351562 38.027344 "/>
</g>
</svg>
