<?xml version="1.0" encoding="UTF-8"?>
<svg xmlns="http://www.w3.org/2000/svg" xmlns:xlink="http://www.w3.org/1999/xlink" width="75pt" height="74.999997pt" viewBox="0 0 75 74.999997" version="1.2">
<defs>
<clipPath id="clip1">
  <path d="M 14.539062 40 L 60 40 L 60 58 L 14.539062 58 Z M 14.539062 40 "/>
</clipPath>
<clipPath id="clip2">
  <path d="M 31 16.921875 L 57 16.921875 L 57 42 L 31 42 Z M 31 16.921875 "/>
</clipPath>
</defs>
<g id="surface1">
<g clip-path="url(#clip1)" clip-rule="nonzero">
<path style=" stroke:none;fill-rule:nonzero;fill:rgb(54.899597%,32.159424%,100%);fill-opacity:1;" d="M 58.894531 45.800781 C 58.363281 45.730469 57.765625 45.847656 57.253906 46.03125 C 54.175781 47.15625 51.25 48.46875 48.179688 49.625 C 48.03125 49.683594 47.855469 49.746094 47.757812 49.867188 C 46.957031 50.8125 45.90625 51.195312 44.726562 51.207031 C 42.820312 51.230469 40.914062 51.292969 39.007812 51.339844 C 37.714844 51.371094 36.421875 51.402344 35.128906 51.429688 C 34.800781 51.433594 34.386719 51.066406 34.367188 50.683594 C 34.347656 50.296875 34.609375 50.167969 34.941406 50.132812 C 35.070312 50.121094 35.203125 50.113281 35.335938 50.109375 C 36.945312 50.066406 38.550781 50.027344 40.160156 49.984375 C 41.851562 49.945312 43.546875 49.933594 45.234375 49.851562 C 46.414062 49.792969 47.21875 48.90625 47.238281 47.769531 C 47.257812 46.546875 46.316406 45.621094 45.035156 45.644531 C 43.136719 45.683594 40.738281 45.421875 38.789062 45.117188 C 36.476562 44.757812 35.351562 43.566406 33.105469 42.839844 C 29.640625 41.71875 26.101562 42.125 22.527344 42.199219 C 22.519531 41.949219 22.515625 41.699219 22.507812 41.449219 C 22.488281 40.65625 22.105469 40.3125 21.3125 40.332031 C 19.222656 40.378906 17.136719 40.429688 15.046875 40.484375 C 14.917969 40.484375 14.792969 40.503906 14.558594 40.523438 C 14.675781 41.640625 14.753906 42.730469 14.90625 43.8125 C 15.476562 47.839844 16.875 51.566406 19.0625 54.988281 C 19.164062 55.144531 19.414062 55.285156 19.597656 55.289062 C 20.308594 55.308594 21.023438 55.277344 21.734375 55.25 C 22.441406 55.226562 22.828125 54.824219 22.8125 54.101562 C 22.808594 53.894531 22.800781 53.691406 22.796875 53.484375 C 22.800781 53.484375 22.804688 53.488281 22.808594 53.488281 C 24.414062 53.945312 26.011719 54.433594 27.617188 54.902344 C 30.601562 55.769531 33.574219 56.703125 36.585938 57.46875 C 39.085938 58.097656 41.605469 58.171875 43.980469 56.859375 C 49.015625 54.070312 54.050781 51.289062 59.082031 48.492188 C 59.332031 48.355469 59.558594 48.125 59.726562 47.886719 C 60.296875 47.078125 59.867188 45.925781 58.894531 45.800781 "/>
</g>
<g clip-path="url(#clip2)" clip-rule="nonzero">
<path style=" stroke:none;fill-rule:nonzero;fill:rgb(54.899597%,32.159424%,100%);fill-opacity:1;" d="M 49.234375 28.671875 C 48.492188 29.285156 47.761719 29.910156 47.015625 30.507812 C 46.8125 30.675781 46.769531 30.828125 46.832031 31.074219 C 47.070312 31.988281 47.285156 32.90625 47.507812 33.820312 C 47.597656 34.167969 47.515625 34.464844 47.226562 34.683594 C 46.976562 34.878906 46.644531 34.871094 46.328125 34.667969 C 45.503906 34.148438 44.675781 33.628906 43.859375 33.097656 C 43.679688 32.980469 43.558594 32.988281 43.382812 33.101562 C 42.597656 33.605469 41.800781 34.089844 41.011719 34.589844 C 40.789062 34.730469 40.550781 34.808594 40.285156 34.746094 C 39.886719 34.652344 39.660156 34.246094 39.757812 33.835938 C 40.011719 32.835938 40.253906 31.839844 40.515625 30.847656 C 40.554688 30.695312 40.523438 30.609375 40.414062 30.515625 C 39.714844 29.921875 39.015625 29.328125 38.3125 28.734375 C 38.054688 28.519531 37.820312 28.296875 37.847656 27.90625 C 37.871094 27.53125 38.152344 27.238281 38.527344 27.210938 C 39.558594 27.144531 40.589844 27.070312 41.621094 27.011719 C 41.78125 27.003906 41.832031 26.914062 41.882812 26.789062 C 42.230469 25.929688 42.582031 25.070312 42.933594 24.214844 C 42.964844 24.136719 42.992188 24.054688 43.03125 23.976562 C 43.175781 23.6875 43.410156 23.523438 43.742188 23.527344 C 44.070312 23.53125 44.296875 23.699219 44.421875 24.007812 C 44.789062 24.933594 45.15625 25.855469 45.515625 26.78125 C 45.589844 26.96875 45.671875 27.058594 45.894531 27.070312 C 46.796875 27.117188 47.699219 27.195312 48.605469 27.265625 C 48.738281 27.277344 48.875 27.292969 49.003906 27.328125 C 49.335938 27.425781 49.535156 27.714844 49.53125 28.097656 C 49.546875 28.339844 49.417969 28.519531 49.234375 28.671875 Z M 55.632812 26.972656 C 55.1875 26.644531 54.808594 26.210938 54.535156 25.683594 C 54.125 24.894531 54.027344 24.019531 54.210938 23.207031 C 54.363281 22.488281 53.875 21.777344 53.152344 21.683594 C 52.601562 21.609375 52.0625 21.40625 51.574219 21.070312 C 50.839844 20.566406 50.347656 19.839844 50.121094 19.035156 C 49.925781 18.328125 49.160156 17.941406 48.476562 18.199219 C 47.957031 18.398438 47.390625 18.476562 46.804688 18.414062 C 45.917969 18.316406 45.140625 17.910156 44.566406 17.308594 C 44.328125 17.0625 44.007812 16.933594 43.6875 16.933594 C 43.367188 16.933594 43.050781 17.0625 42.8125 17.308594 C 42.238281 17.910156 41.460938 18.316406 40.574219 18.414062 C 39.988281 18.476562 39.421875 18.398438 38.902344 18.199219 C 38.21875 17.941406 37.453125 18.328125 37.257812 19.035156 C 37.03125 19.839844 36.535156 20.566406 35.804688 21.070312 C 35.3125 21.40625 34.773438 21.609375 34.226562 21.683594 C 33.503906 21.777344 33.011719 22.488281 33.167969 23.207031 C 33.347656 24.019531 33.253906 24.894531 32.84375 25.683594 C 32.574219 26.210938 32.191406 26.644531 31.742188 26.972656 C 31.152344 27.398438 31.046875 28.257812 31.523438 28.8125 C 32.0625 29.445312 32.394531 30.261719 32.40625 31.15625 C 32.417969 31.753906 32.285156 32.3125 32.039062 32.816406 C 31.722656 33.472656 32.035156 34.277344 32.714844 34.542969 C 33.488281 34.839844 34.164062 35.40625 34.597656 36.191406 C 34.878906 36.707031 35.027344 37.269531 35.054688 37.824219 C 35.082031 38.558594 35.738281 39.113281 36.464844 39.023438 C 37.28125 38.921875 38.140625 39.097656 38.886719 39.582031 C 39.382812 39.902344 39.777344 40.324219 40.058594 40.804688 C 40.425781 41.4375 41.269531 41.613281 41.863281 41.191406 C 42.390625 40.8125 43.019531 40.578125 43.6875 40.523438 C 44.359375 40.578125 44.988281 40.8125 45.515625 41.191406 C 46.109375 41.613281 46.949219 41.4375 47.320312 40.804688 C 47.601562 40.324219 47.996094 39.902344 48.492188 39.582031 C 49.242188 39.097656 50.097656 38.921875 50.914062 39.023438 C 51.640625 39.113281 52.296875 38.558594 52.328125 37.824219 C 52.351562 37.269531 52.496094 36.707031 52.785156 36.191406 C 53.21875 35.40625 53.890625 34.839844 54.660156 34.542969 C 55.339844 34.277344 55.65625 33.472656 55.335938 32.816406 C 55.089844 32.3125 54.960938 31.753906 54.96875 31.15625 C 54.984375 30.261719 55.316406 29.445312 55.855469 28.8125 C 56.328125 28.257812 56.226562 27.398438 55.632812 26.972656 "/>
</g>
</g>
</svg>
