<?xml version="1.0" encoding="UTF-8"?>
<svg xmlns="http://www.w3.org/2000/svg" xmlns:xlink="http://www.w3.org/1999/xlink" width="75pt" height="74.999997pt" viewBox="0 0 75 74.999997" version="1.2">
<defs>
<clipPath id="clip1">
  <path d="M 15.476562 15 L 59.726562 15 L 59.726562 60 L 15.476562 60 Z M 15.476562 15 "/>
</clipPath>
</defs>
<g id="surface1">
<g clip-path="url(#clip1)" clip-rule="nonzero">
<path style=" stroke:none;fill-rule:nonzero;fill:rgb(54.899597%,32.159424%,100%);fill-opacity:1;" d="M 35.125 15.15625 C 28.363281 15.15625 23.378906 17.476562 20.15625 21.113281 C 16.933594 24.753906 15.476562 29.640625 15.476562 34.707031 C 15.476562 38.808594 16.753906 42.628906 18.917969 45.757812 C 20.875 48.59375 22.027344 51.949219 22.027344 55.375 L 22.027344 59.84375 L 23.898438 59.84375 L 23.898438 55.375 C 23.898438 51.539062 22.613281 47.820312 20.460938 44.699219 C 18.503906 41.871094 17.347656 38.421875 17.347656 34.707031 C 17.347656 29.996094 18.703125 25.574219 21.558594 22.347656 C 24.417969 19.117188 28.789062 17.015625 35.125 17.015625 C 41.484375 17.015625 45.609375 18.859375 48.332031 21.679688 C 51.054688 24.496094 52.40625 28.378906 52.90625 32.582031 L 52.929688 32.773438 L 57.414062 40.46875 C 57.644531 40.882812 57.527344 41.296875 57.125 41.527344 L 52.898438 43.628906 L 52.898438 49.230469 C 52.898438 52.714844 50.019531 55.421875 46.527344 55.101562 L 46.515625 55.097656 L 42.609375 54.847656 L 42.609375 59.84375 L 44.480469 59.84375 L 44.480469 56.835938 L 46.359375 56.953125 C 50.914062 57.378906 54.769531 53.753906 54.769531 49.230469 L 54.769531 44.777344 L 58.03125 43.15625 C 59.304688 42.449219 59.75 40.820312 59.050781 39.5625 L 59.046875 39.554688 L 54.695312 32.097656 C 54.140625 27.738281 52.714844 23.53125 49.679688 20.382812 C 46.578125 17.175781 41.859375 15.15625 35.125 15.15625 Z M 36.996094 27.242188 C 36.550781 27.246094 36.164062 27.558594 36.078125 27.996094 L 33.269531 41.03125 C 33.164062 41.535156 33.488281 42.027344 33.992188 42.136719 C 34.5 42.242188 34.996094 41.921875 35.105469 41.417969 L 37.914062 28.382812 C 37.972656 28.105469 37.910156 27.816406 37.730469 27.59375 C 37.550781 27.371094 37.28125 27.242188 36.996094 27.242188 Z M 29.074219 30.039062 C 28.769531 30.035156 28.476562 30.175781 28.292969 30.425781 L 25.066406 34.707031 L 28.292969 38.988281 C 28.605469 39.402344 29.1875 39.484375 29.601562 39.175781 C 30.019531 38.867188 30.101562 38.285156 29.792969 37.875 L 27.40625 34.707031 L 29.792969 31.539062 C 30.007812 31.261719 30.046875 30.886719 29.898438 30.570312 C 29.75 30.253906 29.429688 30.050781 29.074219 30.039062 Z M 42.078125 30.039062 C 41.730469 30.0625 41.425781 30.269531 41.28125 30.585938 C 41.136719 30.898438 41.179688 31.265625 41.390625 31.539062 L 43.777344 34.707031 L 41.390625 37.875 C 41.082031 38.285156 41.164062 38.867188 41.582031 39.175781 C 41.996094 39.484375 42.578125 39.402344 42.890625 38.988281 L 46.117188 34.707031 L 42.890625 30.425781 C 42.703125 30.167969 42.394531 30.023438 42.078125 30.039062 Z M 42.078125 30.039062 "/>
</g>
</g>
</svg>
